<svg width="22" height="23" viewBox="0 0 22 23" fill="none" xmlns="http://www.w3.org/2000/svg">
<g clip-path="url(#clip0_128_37)">
<path d="M21.9883 11.4673C21.9883 10.5449 21.9134 9.87183 21.7514 9.17383H11.219V13.3369H17.4013C17.2767 14.3715 16.6036 15.9295 15.1079 16.9765L15.0869 17.1159L18.4171 19.6957L18.6478 19.7187C20.7667 17.7618 21.9883 14.8825 21.9883 11.4673Z" fill="#4285F4"/>
<path d="M11.2189 22.436C14.2478 22.436 16.7905 21.4388 18.6477 19.7187L15.1078 16.9765C14.1605 17.6371 12.8891 18.0983 11.2189 18.0983C8.25242 18.0983 5.73463 16.1414 4.8371 13.4367L4.70555 13.4478L1.24279 16.1277L1.19751 16.2536C3.04223 19.9181 6.83142 22.436 11.2189 22.436Z" fill="#34A853"/>
<path d="M4.83737 13.4367C4.60055 12.7387 4.4635 11.9907 4.4635 11.218C4.4635 10.4451 4.60055 9.69731 4.82491 8.99931L4.81864 8.85065L1.31249 6.12775L1.19778 6.18231C0.437481 7.70299 0.0012207 9.41065 0.0012207 11.218C0.0012207 13.0253 0.437481 14.7329 1.19778 16.2536L4.83737 13.4367Z" fill="#FBBC05"/>
<path d="M11.2189 4.33759C13.3254 4.33759 14.7463 5.24749 15.5565 6.00787L18.7225 2.91668C16.7781 1.10934 14.2477 0 11.2189 0C6.83142 0 3.04223 2.5178 1.19751 6.18231L4.82464 8.99931C5.73463 6.29453 8.25242 4.33759 11.2189 4.33759Z" fill="#EB4335"/>
</g>
<defs>
<clipPath id="clip0_128_37">
<rect width="22" height="22.5133" fill="white"/>
</clipPath>
</defs>
</svg>
