<svg width="25" height="25" viewBox="0 0 25 25" fill="none" xmlns="http://www.w3.org/2000/svg">
<path d="M12.5 18.5795C12.0573 18.5795 11.6865 18.4254 11.3875 18.1172C11.0875 17.8101 10.9375 17.4291 10.9375 16.9743V5.49759L8.00781 8.50722C7.69531 8.82825 7.33073 8.98876 6.91406 8.98876C6.4974 8.98876 6.11979 8.81487 5.78125 8.46709C5.46875 8.14607 5.31927 7.76458 5.33281 7.32263C5.34531 6.88176 5.49479 6.51418 5.78125 6.2199L11.4062 0.441412C11.5625 0.280898 11.7318 0.166934 11.9141 0.0995181C12.0964 0.0331725 12.2917 0 12.5 0C12.7083 0 12.9036 0.0331725 13.0859 0.0995181C13.2682 0.166934 13.4375 0.280898 13.5938 0.441412L19.2187 6.2199C19.5312 6.54093 19.6807 6.92188 19.6672 7.36276C19.6547 7.80471 19.5052 8.17282 19.2187 8.46709C18.9062 8.78812 18.5354 8.95506 18.1063 8.9679C17.676 8.98181 17.3047 8.82825 16.9922 8.50722L14.0625 5.49759V16.9743C14.0625 17.4291 13.913 17.8101 13.6141 18.1172C13.3141 18.4254 12.9427 18.5795 12.5 18.5795ZM3.125 25C2.26562 25 1.53021 24.6859 0.91875 24.0578C0.30625 23.4286 0 22.6726 0 21.7897V18.5795C0 18.1247 0.149479 17.7432 0.448438 17.435C0.748438 17.1279 1.11979 16.9743 1.5625 16.9743C2.00521 16.9743 2.37656 17.1279 2.67656 17.435C2.97552 17.7432 3.125 18.1247 3.125 18.5795V21.7897H21.875V18.5795C21.875 18.1247 22.025 17.7432 22.325 17.435C22.624 17.1279 22.9948 16.9743 23.4375 16.9743C23.8802 16.9743 24.251 17.1279 24.55 17.435C24.85 17.7432 25 18.1247 25 18.5795V21.7897C25 22.6726 24.6943 23.4286 24.0828 24.0578C23.4703 24.6859 22.7344 25 21.875 25H3.125Z" fill="black"/>
</svg>
